<svg xmlns="http://www.w3.org/2000/svg" xmlns:xlink="http://www.w3.org/1999/xlink" xml:space="preserve" version="1.1" style="shape-rendering:geometricPrecision;text-rendering:geometricPrecision;image-rendering:optimizeQuality;" viewBox="0 0 1000 1250" x="0px" y="0px" fill-rule="evenodd" clip-rule="evenodd"><defs><style type="text/css">
   
    .fil0 {fill:black;fill-rule:nonzero}
   
  </style></defs><g><path class="fil0" d="M893 755c14,-17 39,-19 56,-5 17,15 19,40 4,57 -181,211 -273,23 -329,-153 -254,411 -603,196 -586,-174 16,-346 418,-629 607,-33 47,-101 88,-205 131,-308 9,-20 32,-30 52,-22 21,9 30,32 22,53 -54,130 -106,263 -172,388 37,123 74,361 215,197zm-300 -204c-166,-554 -461,-392 -476,-68 -15,337 264,458 476,68z"/></g><text x="0" y="1015" fill="#000000" font-size="5px" font-weight="bold" font-family="'Helvetica Neue', Helvetica, Arial-Unicode, Arial, Sans-serif">Created by Dyah Kusumaningrum</text><text x="0" y="1020" fill="#000000" font-size="5px" font-weight="bold" font-family="'Helvetica Neue', Helvetica, Arial-Unicode, Arial, Sans-serif">from the Noun Project</text></svg>