<svg xmlns="http://www.w3.org/2000/svg" xmlns:xlink="http://www.w3.org/1999/xlink" xml:space="preserve" version="1.1" style="shape-rendering:geometricPrecision;text-rendering:geometricPrecision;image-rendering:optimizeQuality;" viewBox="0 0 847 1058.75" x="0px" y="0px" fill-rule="evenodd" clip-rule="evenodd"><defs><style type="text/css">
   
    .fil0 {fill:black;fill-rule:nonzero}
   
  </style></defs><g><path class="fil0" d="M284 796c9,15 5,34 -10,43 -15,10 -34,5 -44,-10 -17,-29 -42,-247 -36,-451 3,-133 18,-262 54,-335 31,-62 290,-60 323,56 14,49 -15,87 -55,109 77,28 148,86 137,176 -19,149 -209,194 -332,173 -17,-3 -29,-20 -26,-37 3,-17 20,-29 37,-26 85,15 244,-8 258,-117 14,-115 -232,-134 -263,-133 -31,1 -33,-64 0,-63 34,0 199,-9 183,-64 -19,-67 -161,-52 -210,-35 -28,66 -40,180 -43,297 -5,194 13,394 27,417z"/></g><text x="0" y="862" fill="#000000" font-size="5px" font-weight="bold" font-family="'Helvetica Neue', Helvetica, Arial-Unicode, Arial, Sans-serif">Created by Dyah Kusumaningrum</text><text x="0" y="867" fill="#000000" font-size="5px" font-weight="bold" font-family="'Helvetica Neue', Helvetica, Arial-Unicode, Arial, Sans-serif">from the Noun Project</text></svg>