<svg xmlns="http://www.w3.org/2000/svg" xmlns:xlink="http://www.w3.org/1999/xlink" version="1.1" x="0px" y="0px" viewBox="0 0 100 125" enable-background="new 0 0 100 100" xml:space="preserve"><path d="M81.914,78.586L66.539,63.211c3.721-4.754,5.961-10.719,5.961-17.21C72.5,30.562,59.939,18,44.501,18  C29.062,18,16.5,30.562,16.5,46.001C16.5,61.439,29.062,74,44.501,74c7.509,0,14.321-2.988,19.354-7.816l15.23,15.23  C79.477,81.805,79.988,82,80.5,82s1.023-0.195,1.414-0.586C82.695,80.633,82.695,79.367,81.914,78.586z M44.501,70  C31.267,70,20.5,59.234,20.5,46.001C20.5,32.767,31.267,22,44.501,22C57.734,22,68.5,32.767,68.5,46.001  C68.5,59.234,57.734,70,44.501,70z M42,62h4v-4h-4V62z M44.5,30c-4.529,0-9.375,3.036-9.992,9.819l3.984,0.361  C39.026,34.298,43.591,34,44.5,34c1.407,0,6,0.369,6,5.125c0,2.509-1.589,3.729-3.773,5.51C44.732,46.261,42,48.285,42,52v2h4v-2  c0-1.731,1.336-2.701,3.254-4.266c2.227-1.814,5.121-4.073,5.121-8.609C54.375,33.667,50.481,30,44.5,30z"/></svg>