<svg xmlns="http://www.w3.org/2000/svg" xmlns:xlink="http://www.w3.org/1999/xlink" xml:space="preserve" version="1.1" style="shape-rendering:geometricPrecision;text-rendering:geometricPrecision;image-rendering:optimizeQuality;" viewBox="0 0 2540 3175" x="0px" y="0px" fill-rule="evenodd" clip-rule="evenodd"><defs><style type="text/css">
   
    .fil0 {fill:black;fill-rule:nonzero}
   
  </style></defs><g><path class="fil0" d="M1041 1896c-30,60 -120,15 -91,-45l159 -314 -181 -224 -577 830 1844 0 -702 -1146 -452 899zm422 -1046l0 -330c0,-17 17,-31 36,-23l318 116c22,8 22,40 0,48l-303 108 0 81c7,4 13,10 18,17l797 1300c21,34 -4,78 -43,77l0 1 -2032 0c-40,0 -66,-46 -40,-82l669 -963c19,-28 60,-29 81,-3l195 240 284 -566c5,-9 12,-17 20,-21zm51 -294l0 159 220 -79 -220 -80z"/><path class="fil0" d="M564 1556c15,30 -31,51 -46,21 -274,-590 154,-1282 818,-1282 702,0 1127,766 776,1360 -17,29 -60,3 -43,-26 331,-560 -70,-1283 -733,-1283 -627,0 -1031,653 -772,1210z"/></g></svg>