<svg xmlns:dc="http://purl.org/dc/elements/1.1/" xmlns:cc="http://creativecommons.org/ns#" xmlns:rdf="http://www.w3.org/1999/02/22-rdf-syntax-ns#" xmlns:svg="http://www.w3.org/2000/svg" xmlns="http://www.w3.org/2000/svg" xmlns:sodipodi="http://sodipodi.sourceforge.net/DTD/sodipodi-0.dtd" xmlns:inkscape="http://www.inkscape.org/namespaces/inkscape" version="1.1" x="0px" y="0px" viewBox="0 0 100 125"><g transform="translate(0,-952.36218)"><path style="text-indent:0;text-transform:none;direction:ltr;block-progression:tb;baseline-shift:baseline;color:#000000;enable-background:accumulate;" d="m 50,971.36225 c -17.109,0 -31,13.8909 -31,30.99995 0,16.8155 13.4213,30.5033 30.125,30.9689 0.2873,0.029 0.5823,0.031 0.875,0.031 0.2927,0 0.5877,0 0.875,-0.031 C 67.5787,1032.8655 81,1019.1777 81,1002.3622 81,985.25315 67.109,971.36225 50,971.36225 z m -1,2.0938 0,13.9062 -10.9375,0 c 0.6253,-2.1127 1.3651,-4.074 2.2187,-5.7812 2.3819,-4.7638 5.4727,-7.6335 8.7188,-8.125 z m 2,0 c 3.2461,0.4915 6.3368,3.3612 8.7188,8.125 0.8536,1.7072 1.5934,3.6685 2.2187,5.7812 l -10.9375,0 0,-13.9062 z m -7.7188,0.7187 c -1.8279,1.6129 -3.4437,3.825 -4.7812,6.5 -0.9918,1.9837 -1.8429,4.2491 -2.5312,6.6875 l -10.8126,0 c 3.9626,-6.5463 10.4658,-11.3719 18.125,-13.1875 z m 13.4376,0 c 7.6592,1.8156 14.1624,6.6412 18.125,13.1875 l -10.8126,0 c -0.6883,-2.4384 -1.5394,-4.7038 -2.5312,-6.6875 -1.3375,-2.675 -2.9533,-4.8871 -4.7812,-6.5 z m -32.6563,15.1875 11.4063,0 c -0.8674,3.6789 -1.3679,7.72197 -1.4376,11.99995 l -13,0 c 0.1483,-4.30388 1.2084,-8.37215 3.0313,-11.99995 z m 13.4687,0 11.4688,0 0,11.99995 -12.9688,0 c 0.073,-4.30858 0.6062,-8.36615 1.5,-11.99995 z m 13.4688,0 11.4688,0 c 0.8938,3.6338 1.4269,7.69137 1.5,11.99995 l -12.9688,0 0,-11.99995 z m 13.5312,0 11.4063,0 c 1.8229,3.6278 2.883,7.69607 3.0313,11.99995 l -13,0 c -0.07,-4.27798 -0.5702,-8.32105 -1.4376,-11.99995 z m -43.5,13.99995 13,0 c 0.069,4.2738 0.572,8.3307 1.4376,12 l -11.4063,0 c -1.8184,-3.6275 -2.8861,-7.698 -3.0313,-12 z m 15,0 12.9688,0 0,12 -11.4688,0 c -0.8945,-3.6285 -1.4276,-7.6889 -1.5,-12 z m 14.9688,0 12.9688,0 c -0.072,4.3111 -0.6055,8.3715 -1.5,12 l -11.4688,0 0,-12 z m 14.9688,0 13,0 c -0.1452,4.302 -1.2129,8.3725 -3.0313,12 l -11.4063,0 c 0.8656,-3.6693 1.3687,-7.7262 1.4376,-12 z m -40.8126,14 10.8126,0 c 0.6883,2.4335 1.5394,4.6727 2.5312,6.6563 1.3444,2.6889 2.9729,4.9404 4.8125,6.5626 -7.6811,-1.8124 -14.1899,-6.6523 -18.1563,-13.2189 z m 12.9063,0 10.9375,0 0,13.9376 c -3.2461,-0.4963 -6.3369,-3.4237 -8.7188,-8.1875 -0.852,-1.7042 -1.5941,-3.6463 -2.2187,-5.7501 z m 12.9375,0 10.9375,0 c -0.6246,2.1038 -1.3667,4.0459 -2.2187,5.7501 -2.382,4.7638 -5.4727,7.6912 -8.7188,8.1875 l 0,-13.9376 z m 13.0312,0 10.8126,0 c -3.9664,6.5666 -10.4752,11.4065 -18.1563,13.2189 1.8396,-1.6222 3.4681,-3.8737 4.8125,-6.5626 0.9918,-1.9836 1.8429,-4.2228 2.5312,-6.6563 z" fill="#000000" fill-opacity="1" stroke="none" marker="none" visibility="visible" display="inline" overflow="visible"/></g></svg>