<svg xmlns:dc="http://purl.org/dc/elements/1.1/" xmlns:cc="http://creativecommons.org/ns#" xmlns:rdf="http://www.w3.org/1999/02/22-rdf-syntax-ns#" xmlns:svg="http://www.w3.org/2000/svg" xmlns="http://www.w3.org/2000/svg" xmlns:sodipodi="http://sodipodi.sourceforge.net/DTD/sodipodi-0.dtd" xmlns:inkscape="http://www.inkscape.org/namespaces/inkscape" version="1.1" x="0px" y="0px" viewBox="0 0 100 125"><g transform="translate(0,-952.36218)"><path style="text-indent:0;text-transform:none;direction:ltr;block-progression:tb;baseline-shift:baseline;color:#000000;enable-background:accumulate;" d="m 25.290101,958.59524 c -4.6189,-0.0177 -9.1366,1.52434 -12.7797,5.17031 0,1e-4 0,2e-4 0,3e-4 0,10e-5 0,2e-4 0,3e-4 -5.9104,5.9108 -7.4051,13.31578 -6.0019,20.78157 1.4033,7.46605 5.4928,15.13362 10.616,22.62338 10.2464,14.9797 24.824202,29.3797 31.258402,38.1422 a 2.0002,2.0002 0 0 0 3.2237,6e-4 c 6.4396,-8.7632 21.0202,-23.1628 31.2679,-38.1425 5.1238,-7.4898 9.2134,-15.15733 10.6168,-22.6234 1.4035,-7.46607 -0.0909,-14.8716 -6.0018,-20.7825 -6.3067,-6.30667 -15.2282,-6.31831 -22.7616,-2.85156 -6.0825,2.79903 -11.5148,7.77374 -14.7328,13.79344 -3.218,-6.01968 -8.6498,-10.99438 -14.731302,-13.79344 -3.1776,-1.46255 -6.6023,-2.30586 -9.9731,-2.31875 z m -0.2069,3.92656 c 2.7727,-0.0122 5.6647,0.7175 8.5075,2.02594 6.4979,2.99072 12.346102,9.14726 14.499402,15.85343 a 2.0002,2.0002 0 0 0 3.8088,0 c 2.1532,-6.70617 8.0015,-12.86268 14.5006,-15.85343 6.499,-2.99075 13.2576,-2.95708 18.2609,2.04625 5.0091,5.0091 6.1307,10.66482 4.8994,17.215 -1.2313,6.55017 -5.0273,13.8539 -9.9872,21.10401 -9.2024,13.4517 -22.2385,26.6036 -29.5775,35.9219 -7.335,-9.3188 -20.368902,-22.4704 -29.570002,-35.9219 -4.9593,-7.25013 -8.7548,-14.55381 -9.9859,-21.10401 -1.2311,-6.5502 -0.1094,-12.2059 4.8997,-17.215 a 2.0002,2.0002 0 0 0 10e-4,-6e-4 c 2.8115,-2.814 6.1789,-4.05593 9.7437,-4.07156 z" fill="#000000" fill-opacity="1" fill-rule="evenodd" stroke="none" marker="none" visibility="visible" display="inline" overflow="visible"/></g></svg>