<svg xmlns="http://www.w3.org/2000/svg" xmlns:xlink="http://www.w3.org/1999/xlink" version="1.1" x="0px" y="0px" viewBox="0 0 60 68.75" enable-background="new 0 0 60 55" xml:space="preserve"><g><path d="M59,53V14H47v39h-3V22H32v31h-3V30H17v23h-3V39H2v14H1c-0.55,0-1,0.45-1,1s0.45,1,1,1h1h12h3h12h3h12h3h12   c0.55,0,1-0.45,1-1S59.55,53,59,53z M4,53V41h8v12H4z M19,53V32h8v21H19z M34,53V24h8v29H34z M49,53V16h8v37H49z"/><path d="M8.03,25.33c0.17,0,0.34-0.04,0.5-0.13L44.8,4.26l-2.27,4.99c-0.23,0.5-0.01,1.1,0.5,1.32c0.13,0.06,0.27,0.09,0.41,0.09   c0.38,0,0.74-0.22,0.91-0.59l3.56-7.83c0.01-0.03,0.01-0.05,0.02-0.08c0.02-0.05,0.03-0.1,0.04-0.16c0.01-0.03,0.02-0.05,0.02-0.08   c0-0.01,0-0.02,0-0.03c0-0.04,0-0.07,0-0.11c0-0.06-0.01-0.11-0.02-0.16c-0.01-0.04-0.01-0.08-0.02-0.11   c-0.01-0.04-0.03-0.07-0.05-0.1c-0.01-0.02-0.01-0.05-0.03-0.08c-0.01-0.02-0.04-0.04-0.05-0.06c-0.02-0.03-0.04-0.06-0.06-0.09   c-0.03-0.03-0.06-0.05-0.09-0.08c-0.04-0.04-0.08-0.07-0.13-0.1c-0.03-0.02-0.06-0.04-0.09-0.06c-0.01-0.01-0.02-0.02-0.03-0.02   c-0.03-0.01-0.05-0.01-0.08-0.02c-0.06-0.02-0.11-0.03-0.17-0.04c-0.03,0-0.05-0.02-0.07-0.02l-8.56-0.83   c-0.56-0.06-1.04,0.35-1.09,0.9c-0.05,0.55,0.35,1.04,0.9,1.09l5.46,0.53L7.53,23.46c-0.48,0.28-0.64,0.89-0.37,1.37   C7.35,25.15,7.68,25.33,8.03,25.33z"/></g></svg>