<svg xmlns="http://www.w3.org/2000/svg" viewBox="0 0 64 80" x="0px" y="0px"><path d="M32,24A10,10,0,1,0,22,14,10,10,0,0,0,32,24ZM32,6a8,8,0,1,1-8,8A8,8,0,0,1,32,6Z"/><path d="M59,45V22a5,5,0,0,0-10,0V37.71l-1.14-1.06A4,4,0,0,0,45,35.35V32a5,5,0,0,0-5-5H24a5,5,0,0,0-5,5v3.35a3.9,3.9,0,0,0-2.8,1.25L15,37.71V22A5,5,0,0,0,5,22V45a1,1,0,0,0,.26.68L16,57.39V59a1,1,0,0,0,2,0V57a1,1,0,0,0-.26-.68L7,44.61V22a3,3,0,0,1,6,0V40a1,1,0,0,0,0,.2,1,1,0,0,0,0,.15,1,1,0,0,0,.19.32h0l9,10a1,1,0,0,0,1.49-1.34L15.4,40.06,17.62,38a2,2,0,0,1,1.43-.65,1.88,1.88,0,0,1,1.46.58L31,48.41V59a1,1,0,0,0,2,0V48.41L43.48,37.93a1.86,1.86,0,0,1,1.46-.58,2,2,0,0,1,1.49.72l2.16,2-8.34,9.27a1,1,0,1,0,1.49,1.34l9-10h0a1,1,0,0,0,.19-.32,1,1,0,0,0,0-.15,1,1,0,0,0,0-.2V22a3,3,0,0,1,6,0V44.61L46.26,56.32A1,1,0,0,0,46,57v2a1,1,0,0,0,2,0V57.39L58.74,45.68A1,1,0,0,0,59,45ZM42.07,36.52,32,46.59,21.93,36.52a4,4,0,0,0-.93-.68V32a3,3,0,0,1,3-3H40a3,3,0,0,1,3,3v3.75s0,.06,0,.09A4,4,0,0,0,42.07,36.52Z"/></svg>