<svg xmlns="http://www.w3.org/2000/svg" xmlns:xlink="http://www.w3.org/1999/xlink" version="1.1" x="0px" y="0px" viewBox="0 0 100 125" style="enable-background:new 0 0 100 100;" xml:space="preserve"><path d="M50,44.6c4.5,0,8.2-3.7,8.2-8.2s-3.7-8.2-8.2-8.2s-8.2,3.7-8.2,8.2S45.5,44.6,50,44.6z M50,30.3c3.4,0,6.2,2.8,6.2,6.2  s-2.8,6.2-6.2,6.2s-6.2-2.8-6.2-6.2S46.6,30.3,50,30.3z M68.2,38.5c4.5,0,8.2-3.7,8.2-8.2s-3.7-8.2-8.2-8.2c-4.5,0-8.2,3.7-8.2,8.2  S63.7,38.5,68.2,38.5z M68.2,24.2c3.4,0,6.2,2.8,6.2,6.2s-2.8,6.2-6.2,6.2c-3.4,0-6.2-2.8-6.2-6.2S64.8,24.2,68.2,24.2z M31.8,38.5  c4.5,0,8.2-3.7,8.2-8.2s-3.7-8.2-8.2-8.2s-8.2,3.7-8.2,8.2S27.3,38.5,31.8,38.5z M31.8,24.2c3.4,0,6.2,2.8,6.2,6.2s-2.8,6.2-6.2,6.2  s-6.2-2.8-6.2-6.2S28.4,24.2,31.8,24.2z M80,47.6l-1.7,13.2c-0.1,0.5-0.5,0.9-1,0.9h-2.8v9.6c0,0.6-0.4,1-1,1H62.8c-0.6,0-1-0.4-1-1  v-3.9c0.1-0.3,0.2-0.5,0.3-0.8l0.9-6.8c0.5,0.1,0.9,0.5,0.9,1v9.6h8.7v-9.6c0-0.6,0.4-1,1-1h2.9L78,47.3c0.1-0.8-0.1-1.5-0.6-2.1  s-1.2-0.9-2-0.9H61c-0.8,0-1.5,0.3-2,0.9c-0.2,0.2-0.3,0.5-0.4,0.7c-0.4-0.1-0.9-0.1-1.3-0.1h-0.7c0.2-0.7,0.5-1.3,1-1.9  c0.9-1,2.2-1.6,3.5-1.6h14.4c1.3,0,2.6,0.6,3.5,1.6S80.1,46.3,80,47.6z M37.9,66.6c0,0.3,0.1,0.6,0.3,0.8v3.9c0,0.6-0.4,1-1,1H26.5  c-0.6,0-1-0.4-1-1v-9.6h-2.8c-0.5,0-0.9-0.4-1-0.9L20,47.6c-0.2-1.3,0.2-2.7,1.1-3.7s2.2-1.6,3.5-1.6H39c1.3,0,2.6,0.6,3.5,1.6  c0.5,0.6,0.8,1.2,1,1.9h-0.7c-0.5,0-0.9,0-1.3,0.1c-0.1-0.3-0.2-0.5-0.4-0.7c-0.5-0.6-1.2-0.9-2-0.9H24.6c-0.8,0-1.5,0.3-2,0.9  s-0.7,1.3-0.6,2.1l1.6,12.4h2.9c0.6,0,1,0.4,1,1v9.6h8.7v-9.6c0-0.5,0.4-0.9,0.9-1L37.9,66.6z M60.7,49.4c-0.9-1-2.2-1.6-3.5-1.6  H42.8c-1.3,0-2.6,0.6-3.5,1.6c-0.9,1-1.3,2.3-1.1,3.7l1.7,13.2c0.1,0.5,0.5,0.9,1,0.9h2.8v9.6c0,0.6,0.4,1,1,1h10.7c0.6,0,1-0.4,1-1  v-9.6h2.8c0.5,0,0.9-0.4,1-0.9l1.7-13.2C62,51.7,61.6,50.4,60.7,49.4z M59.8,52.8l-1.6,12.4h-2.9c-0.6,0-1,0.4-1,1v9.6h-8.7v-9.6  c0-0.6-0.4-1-1-1h-2.9l-1.6-12.4c-0.1-0.8,0.1-1.5,0.6-2.1c0.5-0.6,1.2-0.9,2-0.9h14.4c0.8,0,1.5,0.3,2,0.9  C59.7,51.3,59.9,52.1,59.8,52.8z"/></svg>