<svg xmlns="http://www.w3.org/2000/svg" xmlns:xlink="http://www.w3.org/1999/xlink" version="1.1" x="0px" y="0px" viewBox="0 0 80 50" style="enable-background:new 0 0 100 100;" xml:space="preserve"><path d="M12,16.6 C16.5,16.6 20.2,12.9 20.2,8.4 C20.2,3.9 16.5,0.2 12,0.2 C7.5,0.2 3.8,3.9 3.8,8.4 C3.8,12.9 7.5,16.6 12,16.6 Z M12,2.3 C15.4,2.3 18.2,5.1 18.2,8.5 C18.2,11.9 15.4,14.7 12,14.7 C8.6,14.7 5.8,11.9 5.8,8.5 C5.8,5.1 8.6,2.3 12,2.3 Z M22.7,21.4 C21.8,20.4 20.5,19.8 19.2,19.8 L4.8,19.8 C3.5,19.8 2.2,20.4 1.3,21.4 C0.4,22.4 0,23.7 0.2,25.1 L1.9,38.3 C2,38.8 2.4,39.2 2.9,39.2 L5.7,39.2 L5.7,48.8 C5.7,49.4 6.1,49.8 6.7,49.8 L17.4,49.8 C18,49.8 18.4,49.4 18.4,48.8 L18.4,39.2 L21.2,39.2 C21.7,39.2 22.1,38.8 22.2,38.3 L23.9,25.1 C24,23.7 23.6,22.4 22.7,21.4 Z M21.8,24.8 L20.2,37.2 L17.3,37.2 C16.7,37.2 16.3,37.6 16.3,38.2 L16.3,47.8 L7.6,47.8 L7.6,38.2 C7.6,37.6 7.2,37.2 6.6,37.2 L3.7,37.2 L2.1,24.8 C2,24 2.2,23.3 2.7,22.7 C3.2,22.1 3.9,21.8 4.7,21.8 L19.1,21.8 C19.9,21.8 20.6,22.1 21.1,22.7 C21.7,23.3 21.9,24.1 21.8,24.8 Z" id="Shape"/></svg>